<svg width="125" height="125" viewBox="0 0 125 125" fill="none" xmlns="http://www.w3.org/2000/svg">
<g clip-path="url(#clip0_252_1516)">
<path d="M45.2096 60.5422C45.2096 61.6865 44.2942 62.6018 43.15 62.6018H35.4201C34.2759 62.6018 33.3605 61.6865 33.3605 60.5422V52.8124C33.3605 51.6681 34.2759 50.7528 35.4201 50.7528H43.15C44.2942 50.7528 45.2096 51.6681 45.2096 52.8124V60.5422ZM61.3559 52.8378C61.3559 51.6936 60.4405 50.7782 59.2963 50.7782H51.5664C50.4222 50.7782 49.5068 51.6936 49.5068 52.8378V60.5677C49.5068 61.7119 50.4222 62.6273 51.5664 62.6273H59.2963C60.4405 62.6273 61.3559 61.7119 61.3559 60.5677V52.8378ZM77.5022 52.8378C77.5022 51.6936 76.5868 50.7782 75.4426 50.7782H67.7127C66.5685 50.7782 65.6531 51.6936 65.6531 52.8378V60.5677C65.6531 61.7119 66.5685 62.6273 67.7127 62.6273H75.4426C76.5868 62.6273 77.5022 61.7119 77.5022 60.5677V52.8378ZM45.2096 68.5518C45.2096 67.4076 44.2942 66.4922 43.15 66.4922H35.4201C34.2759 66.4922 33.3605 67.4076 33.3605 68.5518V76.2817C33.3605 77.4259 34.2759 78.3413 35.4201 78.3413H43.15C44.2942 78.3413 45.2096 77.4259 45.2096 76.2817V68.5518ZM61.3559 68.5518C61.3559 67.4076 60.4405 66.4922 59.2963 66.4922H51.5664C50.4222 66.4922 49.5068 67.4076 49.5068 68.5518V76.2817C49.5068 77.4259 50.4222 78.3413 51.5664 78.3413H59.2963C60.4405 78.3413 61.3559 77.4259 61.3559 76.2817V68.5518ZM75.4426 66.4922H67.7127C66.5685 66.4922 65.6531 67.4076 65.6531 68.5518V76.2817C65.6531 77.4259 66.5685 78.3413 67.7127 78.3413H75.4426C76.5868 78.3413 77.5022 77.4259 77.5022 76.2817V68.5518C77.5022 67.4076 76.5868 66.4922 75.4426 66.4922ZM26.9783 82.2062H19.2738C18.1296 82.2062 17.2142 83.1216 17.2142 84.2658V91.9957C17.2142 93.1399 18.1296 94.0553 19.2738 94.0553H27.0037C28.1479 94.0553 29.0633 93.1399 29.0633 91.9957V84.2658C29.0633 83.1216 28.1225 82.2062 26.9783 82.2062ZM29.0633 68.5518C29.0633 67.4076 28.1479 66.4922 27.0037 66.4922H19.2738C18.1296 66.4922 17.2142 67.4076 17.2142 68.5518V76.2817C17.2142 77.4259 18.1296 78.3413 19.2738 78.3413H27.0037C28.1479 78.3413 29.0633 77.4259 29.0633 76.2817V68.5518V68.5518ZM59.2963 82.2062H51.5664C50.4222 82.2062 49.5068 83.1216 49.5068 84.2658V91.9957C49.5068 93.1399 50.4222 94.0553 51.5664 94.0553H59.2963C60.4405 94.0553 61.3559 93.1399 61.3559 91.9957V84.2658C61.3559 83.1216 60.4405 82.2062 59.2963 82.2062ZM43.15 82.2062H35.4201C34.2759 82.2062 33.3605 83.1216 33.3605 84.2658V91.9957C33.3605 93.1399 34.2759 94.0553 35.4201 94.0553H43.15C44.2942 94.0553 45.2096 93.1399 45.2096 91.9957V84.2658C45.2096 83.1216 44.2942 82.2062 43.15 82.2062ZM91.5889 62.6273C92.7331 62.6273 93.6485 61.7119 93.6485 60.5677V52.8378C93.6485 51.6936 92.7331 50.7782 91.5889 50.7782H83.859C82.7148 50.7782 81.7994 51.6936 81.7994 52.8378V60.5677C81.7994 61.7119 82.7148 62.6273 83.859 62.6273H91.5889ZM12.1288 110.837H70.7894C69.8486 107.888 69.3146 104.735 69.2892 101.48H12.1288C10.6032 101.48 9.38265 100.234 9.38265 98.7339V43.4806H101.353V69.1875C104.608 69.2129 107.761 69.696 110.71 70.6368V24.1304C110.71 17.4431 105.269 12.0017 98.5814 12.0017H85.0032V4.52605C85.0032 2.08503 83.0199 0.101707 80.5789 0.101707H73.6881C71.2471 0.101707 69.2638 2.08503 69.2638 4.52605V12.0271H41.4464V4.52605C41.4464 2.08503 39.4631 0.101707 37.022 0.101707H30.1313C27.6903 0.101707 25.7069 2.08503 25.7069 4.52605V12.0271H12.1288C5.44143 12.0271 0 17.4685 0 24.1559V98.7339C0 105.396 5.44143 110.837 12.1288 110.837ZM124.39 101.124C124.39 113.914 114.016 124.288 101.226 124.288C88.4359 124.288 78.0616 113.914 78.0616 101.124C78.0616 88.3342 88.4359 77.9599 101.226 77.9599C114.016 77.9599 124.39 88.3342 124.39 101.124ZM112.922 95.1233C112.922 94.3859 112.643 93.6739 112.109 93.1654C111.015 92.072 109.261 92.072 108.167 93.1654L98.0982 103.235L94.2333 99.3696C93.1399 98.2762 91.3855 98.2762 90.2921 99.3696C89.7581 99.9036 89.4784 100.59 89.4784 101.328C89.4784 102.065 89.7581 102.777 90.2921 103.285L96.1149 109.108C97.2083 110.202 98.9628 110.202 100.056 109.108L112.083 97.0812C112.643 96.5726 112.922 95.8607 112.922 95.1233Z" fill="#FAFAFA"/>
</g>
<defs>
<clipPath id="clip0_252_1516">
<rect width="124.39" height="124.39" fill="white"/>
</clipPath>
</defs>
</svg>
