<svg width="125" height="125" viewBox="0 0 125 125" fill="none" xmlns="http://www.w3.org/2000/svg">
<g clip-path="url(#clip0_252_1405)">
<circle cx="62.195" cy="62.195" r="60.195" stroke="#FAFAFA" stroke-width="4"/>
<path d="M91.8471 61.4008C98.9566 61.4008 104.741 54.6038 104.741 46.2491C104.741 37.8945 98.9566 31.0975 91.8471 31.0975C84.7375 31.0975 78.9531 37.8945 78.9531 46.2491C78.9531 54.6038 84.7375 61.4008 91.8471 61.4008ZM91.8471 40.5469C94.5228 40.5469 96.6996 43.1049 96.6996 46.2491C96.6996 49.3934 94.5228 51.9514 91.8471 51.9514C89.1713 51.9514 86.9945 49.3934 86.9945 46.2491C86.9945 43.1049 89.1713 40.5469 91.8471 40.5469Z" fill="#FAFAFA"/>
<path d="M32.5424 61.4008C39.652 61.4008 45.4363 54.6038 45.4363 46.2491C45.4363 37.8945 39.652 31.0975 32.5424 31.0975C25.4328 31.0975 19.6484 37.8945 19.6484 46.2491C19.6484 54.6038 25.4328 61.4008 32.5424 61.4008ZM32.5424 40.5469C35.2181 40.5469 37.395 43.1049 37.395 46.2491C37.395 49.3934 35.2181 51.9514 32.5424 51.9514C29.8666 51.9514 27.6898 49.3934 27.6898 46.2491C27.6898 43.1049 29.8666 40.5469 32.5424 40.5469Z" fill="#FAFAFA"/>
<path d="M91.8475 64.9443C86.0871 64.9443 80.7492 67.8105 77.0108 72.6179C73.3331 67.9046 68.0529 64.9443 62.195 64.9443C56.337 64.9443 51.0569 67.9046 47.3791 72.6179C43.6407 67.8105 38.303 64.9443 32.5424 64.9443C21.4572 64.9443 12.439 75.5418 12.439 88.5678V93.2925H111.951V88.5678C111.951 75.5418 102.933 64.9443 91.8475 64.9443ZM62.195 74.3937C67.4365 74.3937 71.9055 78.344 73.5655 83.8431H50.8245C52.4844 78.344 56.9534 74.3937 62.195 74.3937ZM32.5424 74.3937C36.9107 74.3937 40.8743 77.1392 43.007 81.5136C42.804 82.2743 42.6329 83.0515 42.4958 83.8431H21.1693C22.8288 78.3431 27.3004 74.3937 32.5424 74.3937ZM81.8941 83.8431C81.7568 83.0517 81.5857 82.2745 81.3829 81.5136C83.5157 77.1392 87.4795 74.3937 91.8475 74.3937C97.0895 74.3937 101.561 78.3433 103.221 83.8431H81.8941Z" fill="#FAFAFA"/>
<path d="M62.1942 61.4008C69.3038 61.4008 75.0882 54.6038 75.0882 46.2491C75.0882 37.8945 69.304 31.0975 62.1942 31.0975C55.0845 31.0975 49.3003 37.8945 49.3003 46.2491C49.3003 54.6038 55.0847 61.4008 62.1942 61.4008ZM62.1942 40.5469C64.87 40.5469 67.0468 43.1049 67.0468 46.2491C67.0468 49.3934 64.87 51.9514 62.1942 51.9514C59.5185 51.9514 57.3417 49.3934 57.3417 46.2491C57.3417 43.1049 59.5185 40.5469 62.1942 40.5469Z" fill="#FAFAFA"/>
</g>
<defs>
<clipPath id="clip0_252_1405">
<rect width="124.39" height="124.39" fill="white"/>
</clipPath>
</defs>
</svg>
