<svg width="125" height="125" viewBox="0 0 125 125" fill="none" xmlns="http://www.w3.org/2000/svg">
<g clip-path="url(#clip0_99_462)">
<path d="M102.885 97.9899L79.0908 74.1791C83.7816 68.5536 86.6029 61.3644 86.6029 53.5125C86.6029 35.5992 71.9017 21.034 53.8184 21.034C35.7351 21.034 21 35.6162 21 53.5295C21 71.4428 35.7012 86.008 53.7844 86.008C61.4664 86.008 68.5366 83.3737 74.1451 78.9718L98.0239 102.851C99.4175 104.244 101.491 104.244 102.885 102.851C104.278 101.457 104.278 99.3835 102.885 97.9899ZM27.9682 53.5295C27.9682 39.4572 39.5591 28.0192 53.7844 28.0192C68.0097 28.0192 79.6007 39.4572 79.6007 53.5295C79.6007 67.6018 68.0097 79.0398 53.7844 79.0398C39.5591 79.0398 27.9682 67.5848 27.9682 53.5295Z" fill="white"/>
</g>
<defs>
<clipPath id="clip0_99_462">
<rect width="82.9298" height="82.9298" fill="white" transform="translate(21 21)"/>
</clipPath>
</defs>
</svg>
