<svg id="Layer_1" data-name="Layer 1" xmlns="http://www.w3.org/2000/svg" xmlns:xlink="http://www.w3.org/1999/xlink" viewBox="0 0 1394.03016 908.3031"><defs><style>.cls-1{fill:url(#linear-gradient);}.cls-2{fill:url(#linear-gradient-2);}.cls-3{fill:url(#linear-gradient-3);}.cls-4{fill:url(#linear-gradient-4);}.cls-5{fill:url(#linear-gradient-5);}.cls-6{fill:url(#linear-gradient-6);}</style><linearGradient id="linear-gradient" x1="1539.15031" y1="1147.36479" x2="1103.85619" y2="667.95302" gradientUnits="userSpaceOnUse"><stop offset="0.30282" stop-color="#9968ac"/><stop offset="0.94248" stop-color="#c5add3"/></linearGradient><linearGradient id="linear-gradient-2" x1="1027.43401" y1="691.15448" x2="1512.72812" y2="1299.97801" gradientUnits="userSpaceOnUse"><stop offset="0" stop-color="#e3dbc3"/><stop offset="0.38313" stop-color="#bbc8a0"/><stop offset="0.78484" stop-color="#98b780"/><stop offset="1" stop-color="#8ab174"/></linearGradient><linearGradient id="linear-gradient-3" x1="1079.01111" y1="1335.53883" x2="787.83464" y2="1017.89177" gradientTransform="translate(9.02371 -7.00015) rotate(0.47633)" gradientUnits="userSpaceOnUse"><stop offset="0" stop-color="#e3dbc3"/><stop offset="1" stop-color="#8ab174"/></linearGradient><linearGradient id="linear-gradient-4" x1="289.47407" y1="789.68684" x2="1062.16193" y2="1230.29933" gradientUnits="userSpaceOnUse"><stop offset="0" stop-color="#e3dbc3"/><stop offset="0.15354" stop-color="#c7cea9"/><stop offset="0.38083" stop-color="#a4bd87"/><stop offset="0.50251" stop-color="#96b77a"/><stop offset="0.70562" stop-color="#8fb376"/><stop offset="1" stop-color="#8ab174"/></linearGradient><linearGradient id="linear-gradient-5" x1="904.5744" y1="793.74221" x2="613.39793" y2="476.09515" gradientTransform="matrix(1, 0, 0, 1, 0, 0)" xlink:href="#linear-gradient-3"/><linearGradient id="linear-gradient-6" x1="488.82564" y1="1203.15312" x2="867.81833" y2="1203.15312" gradientUnits="userSpaceOnUse"><stop offset="0" stop-color="#e3dbc3"/><stop offset="0.57576" stop-color="#adc293"/><stop offset="1" stop-color="#8ab174"/></linearGradient></defs><path class="cls-1" d="M1170.63635,1184.95993c10.27661,46.85449,51.563,81.89282,100.93945,81.89282s90.66309-35.03857,100.93921-81.89319V722H1574.3938l-302.818-166.66669L968.75769,722h201.87866Z" transform="translate(-180.36364 -536.36362)"/><path class="cls-2" d="M1372.515,722v462.95959c-10.27612,46.85462-51.56274,81.89319-100.93921,81.89319s-90.66284-35.03833-100.93945-81.89282V722H968.75769v479.864c0,134.09619,135.57642,242.80274,302.81811,242.80274,167.24195,0,302.818-108.70655,302.818-242.80274V722Z" transform="translate(-180.36364 -536.36362)"/><rect class="cls-3" x="624.19894" y="980.98618" width="444.66665" height="201.87872" transform="translate(-189.32884 -529.28869) rotate(-0.47633)"/><path class="cls-4" d="M867.81833,981.03026v0c0,134.08809-108.69984,242.788-242.788,242.788s-242.788-108.69992-242.788-242.788,108.69987-242.788,242.788-242.788a242.41341,242.41341,0,0,1,194.069,96.88277L980.46805,713.80455C899.32292,606.04419,770.316,536.36362,625.03032,536.36362c-245.58261,0-444.66668,199.08407-444.66668,444.66668S379.44771,1425.697,625.03032,1425.697s444.66673-199.084,444.66673-444.66665h0Z" transform="translate(-180.36364 -536.36362)"/><rect class="cls-5" x="687.45469" y="444.66669" width="201.87872" height="444.66665"/><path class="cls-6" d="M488.82564,1404.44239S867.27226,1275.02065,867.81833,981.0303v372.58831S708.44589,1472.00508,488.82564,1404.44239Z" transform="translate(-180.36364 -536.36362)"/></svg>